inDegrees=no
num_controls=7
num_derivatives=13
num_iterations=114
num_multipliers=7
num_parameters=0
num_slacks=7
num_states=26
objective=3.902052
objective_accelerations=0.484015
objective_balance=0.033049
objective_effort=0.453766
objective_height=2.890672
objective_ligament=0.040550
solver_duration=1295.963334
status=Solve_Succeeded
success=true
DataType=double
version=3
OpenSimVersion=4.4-2022-07-23-0e9fedc
endheader
time	/jointset/ground_pelvis/pelvis_tilt/value	/jointset/ground_pelvis/pelvis_tx/value	/jointset/ground_pelvis/pelvis_ty/value	/jointset/hip_l/hip_flexion_l/value	/jointset/hip_l/hip_adduction_l/value	/jointset/hip_l/hip_rotation_l/value	/jointset/back/lumbar_extension/value	/jointset/patellofemoral_l/patellar_flexion_l/value	/jointset/knee_l/knee_flexion_l/value	/jointset/knee_l/knee_adduction_l/value	/jointset/knee_l/knee_rotation_l/value	/jointset/ankle_l/ankle_angle_l/value	/jointset/subtalar_l/subtalar_angle_l/value	/jointset/ground_pelvis/pelvis_tilt/speed	/jointset/ground_pelvis/pelvis_tx/speed	/jointset/ground_pelvis/pelvis_ty/speed	/jointset/hip_l/hip_flexion_l/speed	/jointset/hip_l/hip_adduction_l/speed	/jointset/hip_l/hip_rotation_l/speed	/jointset/back/lumbar_extension/speed	/jointset/patellofemoral_l/patellar_flexion_l/speed	/jointset/knee_l/knee_flexion_l/speed	/jointset/knee_l/knee_adduction_l/speed	/jointset/knee_l/knee_rotation_l/speed	/jointset/ankle_l/ankle_angle_l/speed	/jointset/subtalar_l/subtalar_angle_l/speed	/forceset/tau_hip_flexion_l	/forceset/tau_hip_adduction_l	/forceset/tau_hip_rotation_l	/forceset/tau_knee_flexion_l	/forceset/tau_ankle_angle_l	/forceset/tau_subtalar_angle_l	/forceset/tau_lumbar_extension	lambda_cid13_p0	lambda_cid13_p1	lambda_cid13_p2	lambda_cid13_p3	lambda_cid13_p4	lambda_cid13_p5	lambda_cid14_p0	/jointset/ground_pelvis/pelvis_tilt/accel	/jointset/ground_pelvis/pelvis_tx/accel	/jointset/ground_pelvis/pelvis_ty/accel	/jointset/hip_l/hip_flexion_l/accel	/jointset/hip_l/hip_adduction_l/accel	/jointset/hip_l/hip_rotation_l/accel	/jointset/back/lumbar_extension/accel	/jointset/patellofemoral_l/patellar_flexion_l/accel	/jointset/knee_l/knee_flexion_l/accel	/jointset/knee_l/knee_adduction_l/accel	/jointset/knee_l/knee_rotation_l/accel	/jointset/ankle_l/ankle_angle_l/accel	/jointset/subtalar_l/subtalar_angle_l/accel	gamma_cid13_p0	gamma_cid13_p1	gamma_cid13_p2	gamma_cid13_p3	gamma_cid13_p4	gamma_cid13_p5	gamma_cid14_p0
0	-0.1600448591377349	0.05852915371344872	0.8979946603568265	0.3774920279260975	-0.2591967944154414	-0.2719544463370677	-0.0126506700172305	0.03223623128433913	0.03223623128433527	-0.1745329157983524	0.173557885754928	-0.04231376238535053	-0.009333009446666672	0	0	0	0	0	0	0	0	0	0	0	0	0	0.1386704054208782	-0.07604579856853121	-0.04738913919036293	-0.2791605196924155	0.2734221401151022	-0.03826726857209599	-0.08832585610199463	46.49905469314363	2.095119440179045	6.554149016383496	1.177556902505541	-578.7045783196955	-71.21623445955113	-39.0440958275809	-3.664319364002785	-2.318881961403658	-1.246845884079058	14.17105980648168	-1.623610404410348	4.33423282275454	-6.447970663836068	12.7922160122893	12.79221601229196	0.3870440798005967	0.1301951806770648	2.541652064869094	-1.075543617351833	-5.583756707022796e-08	2.060898192727203e-07	1.275934175287614e-07	7.419650948742776e-09	1.189962183659294e-07	-1.781899849659024e-08	-1.343548210753514e-08
0.01	-0.1602204312962522	0.05841480995448063	0.8979337911738946	0.3781824317569666	-0.2592774832515033	-0.2717380339036765	-0.01297425252713217	0.03286186874632638	0.03286186874631487	-0.1745160064746608	0.1735600812070401	-0.04219046690878538	-0.00938716146103976	-0.0349133171531496	-0.02274811560672212	-0.01213156329920995	0.1374004448532121	-0.0160489374712651	0.04308548683748448	-0.06425819586872594	0.1245652810407493	0.124565281040771	0.003364852710310822	0.0004383409903309536	0.0245735003939731	-0.01076311557151556	0.1326515027026815	-0.08318445926218808	-0.04627747629552589	-0.2728075594208005	0.2637703664488205	-0.02688140861381961	-0.08327194642827894	43.79408083383443	-2.15806172869166	6.983123785475671	1.999387417035101	-580.1114598748134	-79.25428124843253	-39.06200398337862	-3.374685482979475	-2.234679448681103	-1.189946760545853	13.42247584954311	-1.582260726185597	4.266145341353078	-6.345998131370743	12.20435513312986	12.2043551331307	0.3087045983148677	0.0005337296187693688	2.402356250981602	-1.066648959552825	-1.037874897313291e-07	2.464448191892613e-07	1.932600847885797e-07	4.995449665761909e-08	-8.560543723542925e-08	-5.310801997428276e-09	-2.504370922051992e-08
0.02	-0.1607391061447204	0.05807660442176971	0.8977528793164287	0.3802264278413599	-0.2595160065238278	-0.2710966788565328	-0.01392666781231807	0.03471629321538632	0.03471629321538853	-0.1744659488776098	0.1735666361033545	-0.04182400498341902	-0.009546935317628402	-0.06862053798665951	-0.04477235474856947	-0.02400853490677422	0.2707184506984573	-0.03156688725062391	0.08498852275928089	-0.1257665550566286	0.2457574014079898	0.2457574014079959	0.006629654687385293	0.0008718888369714935	0.04863328976075577	-0.02112436844308194	0.1266325999850604	-0.09032311995565126	-0.04516581340057631	-0.2664545991487898	0.2541185927827471	-0.01549554865530629	-0.07821803675429943	41.19781144344433	-6.428288203684615	7.412550895570015	2.601739533350156	-579.8870369198497	-87.13986705444256	-39.11481280500895	-3.423100100074719	-2.174106668428828	-1.195927545749932	13.35457200488835	-1.517412866029174	4.097742639616915	-5.898003327671315	12.11758387758755	12.11758387758276	0.3670339331531622	0.1292365519389944	2.43890985943084	-0.9951710773621245	-1.517374123924302e-07	2.867998191058023e-07	2.58926752048398e-07	9.248934236649541e-08	-2.902070928367879e-07	7.197394501733684e-09	-3.66519363335047e-08
0.03	-0.161589257907538	0.05752204860501089	0.8974541014937116	0.3835837358127663	-0.2599066603409503	-0.2700423291400917	-0.01547983166144295	0.03776616329702556	0.03776616329701711	-0.1743835205214407	0.1735777133954317	-0.04121902702103247	-0.009807874007806578	-0.1012061688388315	-0.06598832099308093	-0.03573286781134064	0.4000406435803191	-0.04644782474515807	0.1256844709514471	-0.1843969092544284	0.3636569321737957	0.3636569321737513	0.009836007726036452	0.00134138814472149	0.07231351604069332	-0.03096641802091529	0.1206692657619542	-0.08501655363583732	-0.04438121532784284	-0.2619122214486739	0.2501406288019039	-0.01739293905169228	-0.07313065862756825	39.89200182864595	-5.469742726847192	7.367248358726115	2.484760395840489	-579.7950845398332	-84.23338441950227	-39.20049437730865	-3.145763013694282	-2.072749791530136	-1.15862075712057	12.61564623128571	-1.456084135827141	4.025946871139773	-5.775155638510032	11.54219264221651	11.5421926422119	0.2945075816262382	0.005452261061368148	2.325250571721382	-0.9642522269920718	-1.856771352582666e-07	3.051333738942409e-07	3.03215680176972e-07	1.259278248676816e-07	-4.477020035746605e-07	1.061191092487168e-08	-4.434910782742689e-08
0.04	-0.1627591596660672	0.05675985148799349	0.8970384934230857	0.3882131863732632	-0.2604426535219444	-0.2685869347492769	-0.01760521988708218	0.04197823967950259	0.04197823967950198	-0.1742696143163283	0.1735934148087865	-0.04037871248395725	-0.01016433925956284	-0.1325705371271439	-0.08630061480028803	-0.04737458448852926	0.52514696852026	-0.06063476002612319	0.1651974576285383	-0.2402114303592399	0.4781986615851698	0.4781986615850913	0.01292522446087191	0.001796713087200003	0.09570060469847017	-0.04022968075868241	0.1147059315385656	-0.07970998731614325	-0.04359661725498667	-0.2573698437488775	0.2461626648209012	-0.01929032944823336	-0.0680432805008935	38.68498124287484	-4.523793139529836	7.318588068336146	2.158440739264012	-578.2416137663386	-81.18101446473636	-39.3165895887792	-3.178847587302642	-1.993372180968072	-1.179404300274378	12.51139841650423	-1.378612423315413	3.861150336601904	-5.334836709073567	11.4460236067012	11.44602360669968	0.3436066723899555	0.1264016788847147	2.380282334998557	-0.8794137093489464	-2.193279880252315e-07	3.230128782676672e-07	3.470638301791285e-07	1.591787534882968e-07	-6.042256412225645e-07	1.383892878974115e-08	-5.196563899930656e-08
0.05	-0.1642372257195686	0.05579885730595184	0.896506494144451	0.3940740654754327	-0.261116859954844	-0.2667424300374283	-0.02027444388266133	0.04731963110244593	0.04731963110243169	-0.1741253897598202	0.1736138933890292	-0.03930604115392679	-0.01061042085943632	-0.1628399513804202	-0.1057627670722522	-0.05903832059972315	0.6463538220336463	-0.07407713424808321	0.2035159773812895	-0.2932037023012007	0.5895098613777077	0.5895098613775749	0.01588000202960482	0.002281795533036539	0.1187533760350572	-0.04888842256335613	0.1081247333275821	-0.07770162813330607	-0.04263684695565081	-0.2525477167330379	0.2402451698168259	-0.01723380870649283	-0.06262298827062986	36.99235874071795	-5.117960649563556	7.410327823374555	2.326045096953202	-576.8082517785604	-81.1795666444828	-39.45995984412587	-2.920594032213393	-1.902286465769972	-1.161937780719662	11.82404745793024	-1.307701679079055	3.789031241494293	-5.216972468307351	10.88821437659119	10.88821437658397	0.2655456617422164	0.006938973165867121	2.255716254130802	-0.844459738973185	-2.406592690676954e-07	3.362307969265291e-07	3.782893624534649e-07	1.81115882942154e-07	-6.986966327711064e-07	1.786998066509938e-08	-5.685643185637299e-08
0.06	-0.1660119070531898	0.05464731165809845	0.8958574416018681	0.4011267568405832	-0.2619216204814518	-0.2645203744386809	-0.02346070060396849	0.05375704376551258	0.05375704376551246	-0.1739527909551303	0.1736386982829011	-0.03800525376630238	-0.01114016094194601	-0.1918935931485859	-0.1244109079626358	-0.07078523727819773	0.7635094211140196	-0.08674557876775775	0.2407076350093414	-0.3436179755051461	0.6974029096126886	0.6974029096125065	0.01860007410342688	0.002661975808180027	0.1413238162173213	-0.05696137728589572	0.1015435351167755	-0.07569326895045168	-0.04167707665615775	-0.2477255897171775	0.2343276748127591	-0.01517728796473529	-0.05720269604021706	35.38504969402508	-5.723279052772622	7.499522892065064	2.304119215554956	-574.1067874171451	-81.05022916091765	-39.62716208877935	-2.935693090280327	-1.830569904652058	-1.196040413730523	11.7011475299017	-1.223826482858342	3.635777911662042	-4.819236961470395	10.76239329518984	10.76239329518926	0.2966655734077292	0.1054212447461095	2.283816104133829	-0.7622562929221811	-2.614718313007066e-07	3.492524382921461e-07	4.089834160866298e-07	2.025766419047794e-07	-7.90554881325991e-07	2.193488660405713e-08	-6.163245678439464e-08
